<svg xmlns="http://www.w3.org/2000/svg" xmlns:xlink="http://www.w3.org/1999/xlink" viewBox="0 0 100 100"><g><defs><path d="M 12.5 25.84 C 12.5 18.473 18.473 12.5 25.84 12.5 L 74.16 12.5 C 81.527 12.5 87.5 18.473 87.5 25.84 L 87.5 74.16 C 87.5 81.527 81.527 87.5 74.16 87.5 L 25.84 87.5 C 18.473 87.5 12.5 81.527 12.5 74.16 Z" id="a1067z"/><clipPath id="a1068z"><use xlink:href="#a1067z"/></clipPath><filter id="a1069z" x="-18.7%" y="-22%" width="136.3%" height="142.9%" filterUnits="objectBoundingBox"><feOffset dx="0" dy="2.5" in="SourceAlpha" result="a1071z"/><feGaussianBlur stdDeviation="2.5" in="a1071z" result="a1072z"/><feColorMatrix color-interpolation-filters="sRGB" values="0 0 0 0 0 0 0 0 0 0 0 0 0 0 0 0 0 0 0.1 0" type="matrix" in="a1072z" result="a1073z"/></filter><filter id="a1074z" x="0%" y="-1.1%" width="98.9%" height="101.1%" filterUnits="objectBoundingBox"><feGaussianBlur stdDeviation="0" in="SourceAlpha" result="a1076z"/><feOffset dx="0" dy=".84" in="a1076z" result="a1077z"/><feComposite in="a1077z" in2="SourceAlpha" operator="arithmetic" k2="-1" k3="1" result="a1078z"/><feColorMatrix color-interpolation-filters="sRGB" values="0 0 0 0 1 0 0 0 0 1 0 0 0 0 1 0 0 0 0.05 0" type="matrix" in="a1078z" result="a1079z"/></filter><linearGradient id="idIdGd_MckZg-562912625" gradientTransform="rotate(45, 0.5, 0.5)"><stop offset="0" stop-color="#2B2B2B" stop-opacity="1"/><stop offset="1" stop-color="#232323" stop-opacity="1"/></linearGradient></defs><g filter="url(#a1069z)"><use stroke-width="1.68" stroke="#000" fill="#000" fill-opacity="1" stroke-opacity="1" xlink:href="#a1067z" clip-path="url(#a1068z)"/></g><use xlink:href="#a1067z" fill="url(#idIdGd_MckZg-562912625)" stroke-opacity="0"/><use fill="#000" fill-opacity="1" filter="url(#a1074z)" xlink:href="#a1067z"/><use xlink:href="#a1067z" clip-path="url(#a1068z)" fill="transparent" stroke-width="1.68" stroke="rgba(255, 255, 255, 0.01)"/></g><g><defs><path d="M 48.318 27.734 C 49.722 25.736 52.863 26.73 52.863 29.171 L 52.863 44.105 L 66.662 44.105 C 68.687 44.105 69.872 46.386 68.708 48.043 L 51.682 72.263 C 50.278 74.26 47.137 73.267 47.137 70.825 L 47.137 55.892 L 33.338 55.892 C 31.313 55.892 30.128 53.61 31.292 51.954 Z" id="a1080z"/><filter id="a1082z" x="0%" y="-1.8%" width="99.7%" height="103.4%" filterUnits="objectBoundingBox"><feGaussianBlur stdDeviation="0" in="SourceAlpha" result="a1084z"/><feOffset dx="0" dy=".84" in="a1084z" result="a1085z"/><feComposite in="a1085z" in2="SourceAlpha" operator="arithmetic" k2="-1" k3="1" result="a1086z"/><feColorMatrix color-interpolation-filters="sRGB" values="0 0 0 0 1 0 0 0 0 1 0 0 0 0 1 0 0 0 0.1 0" type="matrix" in="a1086z" result="a1087z"/></filter><linearGradient id="idL6QJYf159g1811901874" gradientTransform="rotate(45, 0.5, 0.5)"><stop offset="0" stop-color="#fc0" stop-opacity="1"/><stop offset="1" stop-color="#fa0" stop-opacity="1"/></linearGradient></defs><use xlink:href="#a1080z" fill="url(#idL6QJYf159g1811901874)" clip-path="url(#a1081z)"/><use fill="#000" fill-opacity="1" filter="url(#a1082z)" xlink:href="#a1080z"/></g></svg>